<svg xmlns="http://www.w3.org/2000/svg" style="background: transparent; background-color: transparent;" xmlns:xlink="http://www.w3.org/1999/xlink" version="1.1" width="1081px" height="721px" viewBox="-0.5 -0.5 1081 721" content="&lt;mxfile&gt;&lt;diagram name=&quot;S3-Lambda-Discord&quot; id=&quot;s3-lambda-discord&quot;&gt;7Vtbc5s4FP41zHR3xhnumEd8oe1Mus3U6aR96igg22ow8oCc2P31K4HAIORLEsVxsts8VDoIIZ3vOx8HSdas4WL9MQPL+Rccw0Qz9XitWSPNNA3d8el/zLIpLZ7PDbMMxbzR1jBBf2B1J7euUAzzVkOCcULQsm2McJrCiLRsIMvwQ7vZFCftpy7BDHYMkwgkXesNismcWw3X3174BNFszh/dN73ywgJUjflM8jmI8UPDZI01a5hhTMrSYj2ECXNe5ZfyvnDH1XpgGUzJMTeAh7wXJXgVlzfeg2TF58jHRzbVpPM7SCI2el2zBnhFEpTCYe1gZpxlIEb0wUOc4IzaUpzSewdzskhozaDFhzkicLIEEevzgZKD2qY4JRxiw6zq/LGsV+qiJSsv1jPGpgs6ZPtiluHVsnjkZwqy9OovWvxVzo12QjJ8B6uBaaYVBANv0GePQ0kiDPgeZgRRtIMEzVjfBLNHAV5L4JSwHuksUDq7LGojS+cjlz0iBvkcxnw6XYQ4aOypcN0wccQ+QryAJNvQJvyqzcmzaVcfGlTU+9w4b9DQq1gHOP9ndddbitACZ8luxiTglkW0wJjgZkINwy2bGuShMyNtKrQR4Z6XgCG4XY6NjFeUA2lcu73JMldgmdHFjv6FbP4q4PLacDkSuEwJWpYCsDI4QzQ8RKS+lWYrYN0veynOyByCnPToRPQP1/hug/96+/HPJy8J/jD0fV1/0eCvH1EHv6GGTf02mwxdFv26hE+uiujPrR71NwEU+6xDq4lF64NVRInSYc82GnfxoEGTJizUl2M3NMeuDEjH9QPHexpqhigL1mllwRBk3Oh3kTRlMm7qaoC8bSD1vBf/Li/tEAQBXtPzDKMLL2/cenlWMF+yF9AVzhEpInx0iwnBi4M8iOhYKG/bXDsgPyBflhOdojUbx2CJEetlfE87y6uXmUyjuH+VkKV+G2yEejvsu2QxdFsJWVKwgB2qZDCCaEl6q2WCQZy/wFu/RkwEdoHimD3mka9+EeETx7gle/m70hh/PmoJWNzGYI9eXxYNqC1cpRGpEwVFqh2GoS1X7VHfdQu1fYOq7Zivqdoc0mkLr9fU7hrKd6bdpaN/1Y5Wwh3XeLKIq+OOVMhjlEc4i+mXAEFTVEnF/0reiHsh77ZkX90vpeQILPbI+OfgCzV8wwlUq9/DcX+Hfo8s2x6+D/223SP1uxb65wKZ1UC9qnBXGL4z4S68q0atBaY4ki9tGVFsRw1PpELNRRyuYbRiMDTYdNZqbZw4ygW1dk6Zd1cv092KPV5T56aA3TSB2T2K1Co31W0rdGTK7YWOO/LfpnL7QjzWu0GHMK0/wlSAiiJZ2h3qmh9qvqkFw/MPRrvfBcrpu05oKgLKEYByzKOE01UIk1Q8R+VFaryBt3OM784fq1Onub5+RJor261QIZyrHGY7Auzka5Ks+ej9pUfMxWqYYjqHE2mZGquI8oIo8k3I7/mb+Ho9cT4kbhk7pnMUWEo2jNmBi14BWW4djmwYz2DlFbYviWeYZkrjrVXw6rbNJWaBVbjyNyRkw30NVgTLwK9ObpiyRKneWIJpHLAJMA4kIM9RVBpDlFTd7cQnx6ssglJtIyCbQd5a2IphDtiLaQYTQNA9bD1LhlBxKx092DQaFFKRN3q+YoYGVYTU2XaEEySPa08L5Qi2XKmncuSyFQ1zvsPQYY9xQevf+TWdYtJNpJk7C2luc+D4wM5gjv6A21p8uQNp585Ac0bPCOxiagMQ3c0KSrfXzuk/Kbdk4STqQH3yiQ9bax4ukulDT78wWijy2uOo1uGGsN7Z89sd4Ok056wPn8yP0h80hhK+m3F2AtNdHm8unKsSGEFFmgIj3TVQLDMd7C1Tv9B1w7C9vmWYRt9zW1wwPetCWCgpZ8O72aM4rk57NgzD8izP8FzDFjo2xI5LX3Q6fqwy2sJBHrNv7h1nt/1LKCNkOV+H9SYTxnF5Sf+nWNWPQAk+xcEqvuU/UP2wgq+3v6lQDDMICKN88Hf35M/7lFBRMs5ORCvVNAQ6K5RNrgxnmZexMH5mZtY6e8UqV4CwlTdqoT7VnWO1VSqg55vCua58pezYFE5or0ioqLNwoTUdrllMrD5C8rVx+d3Ljxh6Zyc/VbeVFtRyJHShXo7iap3u7DRJmsrVi+qqUrmDctNdjH5lxenbe1Odx7ZXpDgPzVXeBo9spjefrq+v2Hn1q6+T62ZSNKGACTnTfyUjkobf2enSCdIitv16tp+T0vWqejv/hFlR+zDDCT84jz/xxFSA+nOOM+ZbEcugfeXdx3eH1mcX2/J1o5dIOAgikmM4xS8YNJN6UK8Px5bV7d6hNnY039WCsTZ2Nd/S/EAb+xp9gbGCx/aBA4cVBpY2GBQFRxsYReOxNnBZIfC0/qDoZ8i6Etn3Yj+Wetpmhak/gp47leMZP4yQHJN0ZMckVfxiar/Ad3/RBNeI/OA+Y+WfrHxhOrw6WjeujTZVJaWj+tGs/GxWtjcVteouqYweVOlurrgvk1SvyrS6/TlrGajbHwVb438B&lt;/diagram&gt;&lt;/mxfile&gt;"><defs/><g><g><path d="M 0 0 L 1080 0 L 1080 720 L 0 720 Z" fill="none" stroke="#aab7b8" stroke-miterlimit="10" pointer-events="all" style="stroke: light-dark(rgb(170, 183, 184), rgb(74, 85, 86));"/><path d="M 10.73 6.89 C 8.19 6.86 6.05 9.34 6.28 11.84 C 4.63 12.3 3.58 14.09 3.93 15.76 C 4.17 17.45 5.84 18.8 7.55 18.58 C 11.3 18.56 15.04 18.61 18.79 18.55 C 20.71 18.38 22.05 16.29 21.58 14.45 C 21.34 13.13 20.21 11.98 18.87 11.81 C 18.86 10.3 17.26 8.82 15.79 9.6 C 14.97 10.39 14.82 8.44 14.02 8.13 C 13.14 7.28 11.95 6.82 10.73 6.89 Z M 10.75 7.63 C 12.68 7.51 14.32 9.05 14.91 10.79 C 15.31 11.19 15.67 10.52 15.97 10.34 C 17.25 9.57 18.21 11.17 18.23 12.29 C 18.58 12.77 19.39 12.38 19.77 12.91 C 21.21 13.93 21.3 16.3 19.88 17.37 C 18.9 18.09 17.63 17.75 16.5 17.83 C 13.28 17.82 10.06 17.84 6.84 17.82 C 5.2 17.58 4.19 15.69 4.79 14.17 C 5.07 13.16 6.05 12.67 6.94 12.36 C 7.19 11.62 6.85 10.71 7.33 9.99 C 7.92 8.65 9.25 7.61 10.75 7.63 Z M 0 25 C 0 16.67 0 8.33 0 0 C 8.33 0 16.67 0 25 0 C 25 8.33 25 16.67 25 25 C 16.67 25 8.33 25 0 25 Z" fill="#aab7b8" stroke="none" pointer-events="all" style="fill: light-dark(rgb(170, 183, 184), rgb(74, 85, 86));"/></g><g><rect x="30" y="10" width="120" height="30" fill="none" stroke="none" pointer-events="all"/></g><g><g transform="translate(-0.5 -0.5)"><switch><foreignObject style="overflow: visible; text-align: left;" pointer-events="none" width="100%" height="100%" requiredFeatures="http://www.w3.org/TR/SVG11/feature#Extensibility"><div xmlns="http://www.w3.org/1999/xhtml" style="display: flex; align-items: unsafe flex-start; justify-content: unsafe flex-start; width: 118px; height: 1px; padding-top: 17px; margin-left: 32px;"><div style="box-sizing: border-box; font-size: 0; text-align: left; color: #232F3E; "><div style="display: inline-block; font-size: 16px; font-family: &quot;Helvetica&quot;; color: light-dark(#232F3E, #bdc7d4); line-height: 1.2; pointer-events: all; font-weight: bold; white-space: normal; word-wrap: normal; ">AWS Cloud</div></div></div></foreignObject><text x="32" y="33" fill="#232F3E" font-family="&quot;Helvetica&quot;" font-size="16px" font-weight="bold">AWS Cloud</text></switch></g></g><g><path d="M 40 60 L 1040 60 L 1040 680 L 40 680 Z" fill="none" stroke="#ff9900" stroke-miterlimit="10" stroke-dasharray="3 3" pointer-events="all" style="stroke: light-dark(rgb(255, 153, 0), rgb(175, 87, 0));"/><path d="M 48.06 63.47 C 47.47 63.47 47 63.95 47 64.53 C 47 64.99 47.3 65.39 47.71 65.53 L 47.71 80.82 L 45.95 80.82 L 45.95 81.57 L 50.16 81.57 L 50.16 80.82 L 48.46 80.82 L 48.46 72.75 L 59.84 72.75 L 57.19 69.59 L 59.83 66.36 L 48.46 66.36 L 48.46 65.51 C 48.85 65.35 49.12 64.97 49.12 64.53 C 49.12 63.95 48.64 63.47 48.06 63.47 Z M 48.06 64.22 C 48.23 64.22 48.37 64.35 48.37 64.53 C 48.37 64.71 48.23 64.84 48.06 64.84 C 47.88 64.84 47.75 64.71 47.75 64.53 C 47.75 64.35 47.88 64.22 48.06 64.22 Z M 48.46 67.11 L 58.25 67.11 L 56.22 69.6 L 58.23 72 L 48.46 72 Z M 40 85 L 40 60 L 65 60 L 65 85 Z" fill="#ff9900" stroke="none" pointer-events="all" style="fill: light-dark(rgb(255, 153, 0), rgb(175, 87, 0));"/></g><g><g transform="translate(-0.5 -0.5)"><switch><foreignObject style="overflow: visible; text-align: left;" pointer-events="none" width="100%" height="100%" requiredFeatures="http://www.w3.org/TR/SVG11/feature#Extensibility"><div xmlns="http://www.w3.org/1999/xhtml" style="display: flex; align-items: unsafe flex-start; justify-content: unsafe flex-start; width: 968px; height: 1px; padding-top: 67px; margin-left: 72px;"><div style="box-sizing: border-box; font-size: 0; text-align: left; color: #FF9900; "><div style="display: inline-block; font-size: 12px; font-family: &quot;Helvetica&quot;; color: light-dark(#FF9900, #af5700); line-height: 1.2; pointer-events: all; white-space: normal; word-wrap: normal; ">Region: ap-northeast-1 (Tokyo)</div></div></div></foreignObject><text x="72" y="79" fill="#FF9900" font-family="&quot;Helvetica&quot;" font-size="12px">Region: ap-northeast-1 (Tokyo)</text></switch></g></g><g><rect x="100" y="140" width="280" height="200" rx="30" ry="30" fill="#e6f2e6" stroke="#569a57" pointer-events="all" style="fill: light-dark(rgb(230, 242, 230), rgb(25, 35, 25)); stroke: light-dark(rgb(86, 154, 87), rgb(80, 138, 81));"/></g><g><g transform="translate(-0.5 -0.5)"><switch><foreignObject style="overflow: visible; text-align: left;" pointer-events="none" width="100%" height="100%" requiredFeatures="http://www.w3.org/TR/SVG11/feature#Extensibility"><div xmlns="http://www.w3.org/1999/xhtml" style="display: flex; align-items: unsafe flex-start; justify-content: unsafe flex-start; width: 268px; height: 1px; padding-top: 147px; margin-left: 112px;"><div style="box-sizing: border-box; font-size: 0; text-align: left; color: #232F3E; "><div style="display: inline-block; font-size: 13px; font-family: &quot;Helvetica&quot;; color: light-dark(#232F3E, #bdc7d4); line-height: 1.2; pointer-events: all; font-weight: bold; white-space: normal; word-wrap: normal; ">S3 Bucket</div></div></div></foreignObject><text x="112" y="160" fill="#232F3E" font-family="&quot;Helvetica&quot;" font-size="13px" font-weight="bold">S3 Bucket</text></switch></g></g><g><rect x="190" y="190" width="100" height="104" fill="none" stroke="none" pointer-events="all"/><path d="M 278.54 247.03 L 279.07 243.1 C 283.28 245.66 284.58 247.15 284.96 247.77 C 283.84 248.11 281.59 247.81 278.54 247.03 Z M 236.75 232.75 C 236.75 232.63 236.85 232.53 236.98 232.53 C 237.02 232.53 237.04 232.55 237.07 232.57 L 236.9 232.91 C 236.82 232.89 236.75 232.84 236.75 232.75 Z M 269.12 281.59 C 269.11 281.69 269.1 281.8 269.1 281.9 C 269.1 282.27 268.21 283.66 264.23 285.23 C 262.46 285.93 260.36 286.55 258 287.1 C 251.92 288.5 244.45 289.28 236.97 289.28 C 216.99 289.28 204.85 284.16 204.85 281.9 C 204.85 281.8 204.85 281.69 204.83 281.59 L 195.77 214.28 C 196.35 214.62 196.98 214.94 197.64 215.26 C 197.82 215.35 198.03 215.43 198.22 215.52 C 198.79 215.78 199.37 216.04 199.99 216.28 C 200.25 216.39 200.52 216.49 200.79 216.59 C 201.44 216.84 202.11 217.07 202.81 217.3 C 203.02 217.37 203.21 217.44 203.42 217.5 C 204.31 217.78 205.24 218.05 206.2 218.31 C 206.46 218.38 206.74 218.44 207.01 218.51 C 207.75 218.7 208.5 218.88 209.27 219.05 C 209.6 219.12 209.93 219.2 210.26 219.27 C 211.13 219.45 212.01 219.62 212.9 219.79 C 213.1 219.82 213.28 219.86 213.48 219.89 C 214.56 220.08 215.67 220.26 216.79 220.42 C 217.11 220.47 217.43 220.51 217.75 220.55 C 218.6 220.67 219.46 220.78 220.33 220.88 C 220.68 220.92 221.04 220.96 221.4 221 C 222.45 221.11 223.5 221.21 224.57 221.31 C 224.69 221.32 224.82 221.33 224.95 221.34 C 226.14 221.44 227.34 221.51 228.54 221.58 C 228.88 221.6 229.22 221.62 229.57 221.63 C 230.47 221.68 231.38 221.71 232.28 221.75 C 232.64 221.76 232.99 221.77 233.35 221.78 C 234.56 221.8 235.77 221.83 236.97 221.83 C 238.18 221.83 239.39 221.8 240.6 221.78 C 240.95 221.77 241.31 221.76 241.67 221.75 C 242.57 221.71 243.48 221.68 244.38 221.63 C 244.73 221.62 245.07 221.6 245.42 221.58 C 246.62 221.51 247.81 221.44 249 221.34 C 249.13 221.33 249.26 221.31 249.39 221.31 C 250.46 221.21 251.51 221.11 252.55 221 C 252.91 220.96 253.27 220.92 253.63 220.88 C 254.49 220.78 255.35 220.67 256.2 220.55 C 256.52 220.51 256.85 220.47 257.17 220.42 C 258.29 220.26 259.39 220.08 260.48 219.89 C 260.67 219.86 260.86 219.82 261.06 219.78 C 261.95 219.62 262.83 219.45 263.69 219.27 C 264.03 219.2 264.36 219.12 264.69 219.05 C 265.46 218.88 266.21 218.7 266.94 218.51 C 267.21 218.44 267.49 218.38 267.76 218.31 C 268.72 218.05 269.64 217.78 270.54 217.5 C 270.74 217.44 270.94 217.37 271.14 217.3 C 271.84 217.08 272.52 216.84 273.17 216.59 C 273.44 216.49 273.7 216.39 273.97 216.29 C 274.58 216.04 275.18 215.78 275.75 215.52 C 275.94 215.43 276.13 215.35 276.32 215.26 C 276.97 214.94 277.6 214.62 278.19 214.28 L 273.96 245.69 C 265.37 242.93 253.31 237.94 241.9 232.51 C 241.77 229.9 239.62 227.8 236.98 227.8 C 234.25 227.8 232.03 230.03 232.03 232.75 C 232.03 235.48 234.25 237.7 236.98 237.7 C 238.05 237.7 239.04 237.35 239.85 236.76 C 250.07 241.67 263.13 247.46 273.32 250.4 Z M 236.97 194.72 C 261.57 194.72 278.9 202.34 279.22 206.57 L 279.16 207.06 C 279.12 207.21 279.02 207.36 278.95 207.51 C 278.88 207.63 278.84 207.75 278.75 207.88 C 278.64 208.02 278.49 208.17 278.36 208.32 C 278.24 208.45 278.13 208.58 277.99 208.71 C 277.83 208.86 277.62 209.01 277.43 209.15 C 277.26 209.29 277.1 209.42 276.9 209.56 C 276.68 209.7 276.42 209.85 276.18 210 C 275.95 210.14 275.74 210.28 275.47 210.42 C 275.21 210.56 274.91 210.7 274.62 210.84 C 274.33 210.98 274.06 211.12 273.74 211.27 C 273.43 211.4 273.08 211.54 272.76 211.67 C 272.4 211.81 272.07 211.96 271.69 212.1 C 271.34 212.23 270.95 212.36 270.58 212.48 C 270.18 212.62 269.79 212.77 269.36 212.9 C 268.96 213.03 268.52 213.15 268.1 213.27 C 267.65 213.41 267.22 213.54 266.75 213.67 C 266.3 213.79 265.81 213.9 265.33 214.02 C 264.85 214.14 264.37 214.27 263.86 214.38 C 263.35 214.5 262.8 214.61 262.27 214.72 C 261.76 214.82 261.26 214.94 260.72 215.04 C 260.15 215.15 259.54 215.24 258.95 215.35 C 258.41 215.44 257.88 215.54 257.32 215.62 C 256.71 215.72 256.06 215.8 255.42 215.89 C 254.84 215.97 254.28 216.06 253.69 216.13 C 252.99 216.21 252.26 216.28 251.55 216.36 C 250.97 216.42 250.42 216.49 249.83 216.54 C 249.03 216.61 248.2 216.67 247.39 216.72 C 246.84 216.76 246.3 216.81 245.74 216.85 C 244.85 216.9 243.91 216.93 242.98 216.97 C 242.47 216.99 241.98 217.02 241.46 217.04 C 239.99 217.08 238.5 217.1 236.97 217.1 C 235.45 217.1 233.96 217.08 232.49 217.04 C 231.97 217.02 231.47 216.99 230.95 216.97 C 230.03 216.93 229.1 216.9 228.21 216.85 C 227.62 216.81 227.06 216.76 226.48 216.72 C 225.69 216.66 224.89 216.61 224.13 216.54 C 223.53 216.49 222.98 216.41 222.4 216.36 C 221.68 216.28 220.95 216.21 220.26 216.13 C 219.67 216.06 219.11 215.97 218.54 215.89 C 217.9 215.8 217.25 215.72 216.63 215.62 C 216.05 215.53 215.5 215.43 214.93 215.33 C 214.37 215.23 213.78 215.14 213.24 215.04 C 212.69 214.93 212.18 214.82 211.65 214.71 C 211.13 214.6 210.59 214.5 210.09 214.38 C 209.58 214.27 209.11 214.14 208.62 214.02 C 208.15 213.9 207.66 213.79 207.21 213.67 C 206.73 213.54 206.29 213.4 205.83 213.27 C 205.42 213.15 204.99 213.03 204.59 212.9 C 204.16 212.76 203.76 212.62 203.36 212.48 C 202.99 212.35 202.6 212.23 202.26 212.1 C 201.88 211.96 201.55 211.81 201.19 211.67 C 200.87 211.53 200.52 211.4 200.22 211.27 C 199.9 211.12 199.63 210.98 199.33 210.84 C 199.05 210.7 198.74 210.56 198.48 210.41 C 198.22 210.28 198 210.13 197.77 209.99 C 197.53 209.85 197.27 209.7 197.06 209.56 C 196.85 209.42 196.69 209.28 196.51 209.14 C 196.33 209 196.13 208.85 195.97 208.71 C 195.82 208.58 195.72 208.44 195.59 208.31 C 195.46 208.17 195.31 208.02 195.21 207.88 C 195.12 207.75 195.07 207.63 195.01 207.5 C 194.93 207.35 194.84 207.21 194.8 207.06 L 194.73 206.57 C 195.06 202.34 212.39 194.72 236.97 194.72 Z M 289.76 247.26 C 289.25 244.55 286.12 241.67 279.75 238.03 L 283.8 207.93 L 283.8 207.92 L 283.8 207.92 L 283.92 207 C 283.94 206.89 283.95 206.79 283.95 206.69 C 283.95 196.86 259.19 190 236.97 190 C 214.76 190 190.01 196.86 190.01 206.69 C 190.01 206.8 190.02 206.9 190.03 207 L 190.15 207.92 L 190.15 207.93 L 200.14 282.08 C 200.44 290.76 222.83 294 236.97 294 C 244.8 294 252.64 293.18 259.06 291.7 C 261.65 291.1 263.97 290.4 265.96 289.62 C 271.07 287.6 273.71 285.06 273.82 282.08 L 277.93 251.56 C 280.18 252.04 282.22 252.33 283.92 252.33 C 286.2 252.33 287.91 251.85 288.84 250.74 C 289.67 249.76 289.99 248.52 289.76 247.26 Z" fill="#277116" stroke="none" pointer-events="all" style="fill: light-dark(rgb(39, 113, 22), rgb(114, 178, 100));"/></g><g><rect x="100" y="310" width="160" height="20" fill="none" stroke="none" pointer-events="all"/></g><g><g transform="translate(-0.5 -0.5)"><switch><foreignObject style="overflow: visible; text-align: left;" pointer-events="none" width="100%" height="100%" requiredFeatures="http://www.w3.org/TR/SVG11/feature#Extensibility"><div xmlns="http://www.w3.org/1999/xhtml" style="display: flex; align-items: unsafe center; justify-content: unsafe center; width: 158px; height: 1px; padding-top: 320px; margin-left: 101px;"><div style="box-sizing: border-box; font-size: 0; text-align: center; color: #232F3E; "><div style="display: inline-block; font-size: 12px; font-family: &quot;Helvetica&quot;; color: light-dark(#232F3E, #bdc7d4); line-height: 1.2; pointer-events: all; font-weight: bold; white-space: normal; word-wrap: normal; ">receipt-uploads</div></div></div></foreignObject><text x="180" y="324" fill="#232F3E" font-family="&quot;Helvetica&quot;" font-size="12px" text-anchor="middle" font-weight="bold">receipt-uploads</text></switch></g></g><g><rect x="480" y="140" width="280" height="200" rx="30" ry="30" fill="#fff4e6" stroke="#d86613" pointer-events="all" style="fill: light-dark(rgb(255, 244, 230), rgb(34, 25, 13)); stroke: light-dark(rgb(216, 102, 19), rgb(216, 118, 46));"/></g><g><g transform="translate(-0.5 -0.5)"><switch><foreignObject style="overflow: visible; text-align: left;" pointer-events="none" width="100%" height="100%" requiredFeatures="http://www.w3.org/TR/SVG11/feature#Extensibility"><div xmlns="http://www.w3.org/1999/xhtml" style="display: flex; align-items: unsafe flex-start; justify-content: unsafe flex-start; width: 268px; height: 1px; padding-top: 147px; margin-left: 492px;"><div style="box-sizing: border-box; font-size: 0; text-align: left; color: #232F3E; "><div style="display: inline-block; font-size: 13px; font-family: &quot;Helvetica&quot;; color: light-dark(#232F3E, #bdc7d4); line-height: 1.2; pointer-events: all; font-weight: bold; white-space: normal; word-wrap: normal; ">Lambda Function</div></div></div></foreignObject><text x="492" y="160" fill="#232F3E" font-family="&quot;Helvetica&quot;" font-size="13px" font-weight="bold">Lambda Function</text></switch></g></g><g><rect x="570" y="190" width="100" height="100" fill="none" stroke="none" pointer-events="all"/><path d="M 574.55 240 C 574.55 214.94 594.94 194.55 620 194.55 C 645.06 194.55 665.45 214.94 665.45 240 C 665.45 265.06 645.06 285.45 620 285.45 C 594.94 285.45 574.55 265.06 574.55 240 Z M 570 240 C 570 267.57 592.43 290 620 290 C 647.57 290 670 267.57 670 240 C 670 212.43 647.57 190 620 190 C 592.43 190 570 212.43 570 240 Z M 604.62 265.56 L 592.45 265.56 L 606.87 235.37 L 612.96 247.94 Z M 608.9 229.13 C 608.52 228.34 607.72 227.84 606.85 227.84 L 606.85 227.84 C 605.97 227.85 605.17 228.35 604.8 229.14 L 586.79 266.86 C 586.46 267.56 586.5 268.39 586.92 269.05 C 587.34 269.71 588.06 270.11 588.85 270.11 L 606.06 270.11 C 606.94 270.11 607.74 269.61 608.11 268.81 L 617.54 248.9 C 617.83 248.28 617.83 247.55 617.53 246.93 Z M 647.55 265.56 L 635.17 265.56 L 612.64 217.16 C 612.27 216.36 611.47 215.85 610.58 215.85 L 602.39 215.85 L 602.4 206.48 L 618.81 206.48 L 641.22 254.88 C 641.6 255.68 642.4 256.2 643.29 256.2 L 647.55 256.2 Z M 644.74 251.65 L 622.32 203.25 C 621.95 202.45 621.14 201.93 620.26 201.93 L 600.13 201.93 C 598.87 201.93 597.86 202.95 597.86 204.2 L 597.84 218.12 C 597.84 218.73 598.08 219.31 598.51 219.73 C 598.93 220.16 599.51 220.4 600.12 220.4 L 609.13 220.4 L 631.66 268.8 C 632.03 269.6 632.83 270.11 633.72 270.11 L 649.83 270.11 C 651.09 270.11 652.1 269.1 652.1 267.84 L 652.1 253.92 C 652.1 252.66 651.09 251.65 649.83 251.65 Z" fill="#d86613" stroke="none" pointer-events="all" style="fill: light-dark(rgb(216, 102, 19), rgb(216, 118, 46));"/></g><g><rect x="540" y="300" width="160" height="20" fill="none" stroke="none" pointer-events="all"/></g><g><g transform="translate(-0.5 -0.5)"><switch><foreignObject style="overflow: visible; text-align: left;" pointer-events="none" width="100%" height="100%" requiredFeatures="http://www.w3.org/TR/SVG11/feature#Extensibility"><div xmlns="http://www.w3.org/1999/xhtml" style="display: flex; align-items: unsafe center; justify-content: unsafe center; width: 158px; height: 1px; padding-top: 310px; margin-left: 541px;"><div style="box-sizing: border-box; font-size: 0; text-align: center; color: #232F3E; "><div style="display: inline-block; font-size: 12px; font-family: &quot;Helvetica&quot;; color: light-dark(#232F3E, #bdc7d4); line-height: 1.2; pointer-events: all; font-weight: bold; white-space: normal; word-wrap: normal; ">discord-notifier</div></div></div></foreignObject><text x="620" y="314" fill="#232F3E" font-family="&quot;Helvetica&quot;" font-size="12px" text-anchor="middle" font-weight="bold">discord-notifier</text></switch></g></g><g><rect x="480" y="420" width="280" height="180" rx="27" ry="27" fill="#fce8e6" stroke="#dd344c" pointer-events="all" style="fill: light-dark(rgb(252, 232, 230), rgb(48, 30, 29)); stroke: light-dark(rgb(221, 52, 76), rgb(255, 127, 147));"/></g><g><g transform="translate(-0.5 -0.5)"><switch><foreignObject style="overflow: visible; text-align: left;" pointer-events="none" width="100%" height="100%" requiredFeatures="http://www.w3.org/TR/SVG11/feature#Extensibility"><div xmlns="http://www.w3.org/1999/xhtml" style="display: flex; align-items: unsafe flex-start; justify-content: unsafe flex-start; width: 268px; height: 1px; padding-top: 427px; margin-left: 492px;"><div style="box-sizing: border-box; font-size: 0; text-align: left; color: #232F3E; "><div style="display: inline-block; font-size: 13px; font-family: &quot;Helvetica&quot;; color: light-dark(#232F3E, #bdc7d4); line-height: 1.2; pointer-events: all; font-weight: bold; white-space: normal; word-wrap: normal; ">IAM Role</div></div></div></foreignObject><text x="492" y="440" fill="#232F3E" font-family="&quot;Helvetica&quot;" font-size="13px" font-weight="bold">IAM Role</text></switch></g></g><g><rect x="580" y="460" width="80" height="45" fill="none" stroke="none" pointer-events="all"/><path d="M 658.1 489.75 C 657.84 489.52 657.54 489.35 657.22 489.22 C 655.36 472.73 641.31 460 624.54 460 C 616.98 460 609.6 462.63 603.76 467.4 C 596.05 473.67 591.63 482.98 591.63 492.92 C 591.63 492.99 591.63 493.06 591.63 493.13 C 590.45 493.73 589.2 494.29 587.96 494.84 C 584.18 496.49 581.45 497.69 581.04 499.84 C 580.94 500.39 580.92 501.46 581.96 502.5 C 583.8 504.34 587.32 505 590.9 505 C 592.39 505 593.89 504.89 595.29 504.7 C 597.66 504.37 602.09 503.5 605.09 501.3 C 609.84 497.86 620.56 496.58 626.15 497.01 C 629.48 497.27 633.51 499.02 636.75 500.42 C 639.22 501.5 641.18 502.34 642.71 502.56 C 644.82 502.85 648.27 502.5 651.92 502.12 L 652.22 502.09 C 653.17 501.99 654.11 501.9 655.04 501.83 C 655.42 501.79 655.8 501.76 656.3 501.73 C 657.86 501.62 659.08 500.31 659.08 498.75 L 659.08 491.97 C 659.08 491.12 658.72 490.31 658.1 489.75 Z M 624.54 463.54 C 639.37 463.54 651.82 474.69 653.65 489.21 C 653.14 489.26 652.6 489.32 652.03 489.37 L 651.71 489.4 C 651.66 487.77 650.33 486.45 648.69 486.45 L 647.44 486.45 C 643.54 474.98 632.24 467.07 619.46 467.07 C 614.72 467.07 610.08 468.16 605.92 470.22 C 605.95 470.19 605.97 470.16 606 470.14 C 611.21 465.89 617.8 463.54 624.54 463.54 Z M 642.76 492.42 L 642.76 490 L 648.17 490 L 648.17 492.42 Z M 594.81 501.18 C 590.11 501.83 586.41 501.25 584.87 500.31 C 585.8 499.65 587.9 498.73 589.38 498.08 C 590.66 497.53 591.95 496.94 593.21 496.31 C 595.25 497.86 597.78 499.03 600.58 499.73 C 598.96 500.38 596.96 500.89 594.81 501.18 Z M 655.54 498.23 C 655.26 498.25 654.99 498.27 654.72 498.3 C 653.8 498.37 652.83 498.47 651.85 498.57 L 651.55 498.6 C 648.43 498.92 644.89 499.29 643.2 499.06 C 642.15 498.9 640.21 498.06 638.16 497.17 C 634.68 495.66 630.34 493.78 626.42 493.48 C 621.02 493.07 611.7 494.08 605.69 496.9 C 602.21 496.75 598.99 495.81 596.48 494.27 C 596.47 493.78 596.46 493.3 596.46 493.12 C 596.46 485.79 599.89 478.92 605.89 474.25 C 609.96 471.87 614.64 470.61 619.46 470.61 C 630.3 470.61 639.92 477.02 643.67 486.45 L 642.23 486.45 C 640.79 486.45 639.58 487.48 639.29 488.83 C 639.04 488.74 638.82 488.65 638.56 488.55 C 634.96 487.17 630.03 485.27 624.33 485.61 C 616 486.1 611.9 486.6 608.67 487.52 L 609.64 490.93 C 612.59 490.08 616.49 489.62 624.54 489.14 C 629.47 488.86 633.99 490.59 637.28 491.86 C 637.98 492.13 638.62 492.36 639.22 492.58 L 639.22 492.94 C 639.22 494.61 640.57 495.96 642.23 495.96 L 648.69 495.96 C 650.35 495.96 651.71 494.61 651.71 492.95 L 652.34 492.9 C 653.39 492.8 654.36 492.71 655.17 492.63 L 655.54 492.59 Z" fill="#dd344c" stroke="none" pointer-events="all" style="fill: light-dark(rgb(221, 52, 76), rgb(255, 127, 147));"/></g><g><rect x="540" y="510" width="160" height="20" fill="none" stroke="none" pointer-events="all"/></g><g><g transform="translate(-0.5 -0.5)"><switch><foreignObject style="overflow: visible; text-align: left;" pointer-events="none" width="100%" height="100%" requiredFeatures="http://www.w3.org/TR/SVG11/feature#Extensibility"><div xmlns="http://www.w3.org/1999/xhtml" style="display: flex; align-items: unsafe center; justify-content: unsafe center; width: 158px; height: 1px; padding-top: 520px; margin-left: 541px;"><div style="box-sizing: border-box; font-size: 0; text-align: center; color: #232F3E; "><div style="display: inline-block; font-size: 11px; font-family: &quot;Helvetica&quot;; color: light-dark(#232F3E, #bdc7d4); line-height: 1.2; pointer-events: all; font-weight: bold; white-space: normal; word-wrap: normal; ">lambda-execution-role</div></div></div></foreignObject><text x="620" y="523" fill="#232F3E" font-family="&quot;Helvetica&quot;" font-size="11px" text-anchor="middle" font-weight="bold">lambda-execution-role</text></switch></g></g><g><rect x="880" y="170" width="160" height="140" rx="21" ry="21" fill="#e8e3f5" stroke="#7f56d9" pointer-events="all" style="fill: light-dark(rgb(232, 227, 245), rgb(42, 38, 54)); stroke: light-dark(rgb(127, 86, 217), rgb(167, 132, 244));"/></g><g><g transform="translate(-0.5 -0.5)"><switch><foreignObject style="overflow: visible; text-align: left;" pointer-events="none" width="100%" height="100%" requiredFeatures="http://www.w3.org/TR/SVG11/feature#Extensibility"><div xmlns="http://www.w3.org/1999/xhtml" style="display: flex; align-items: unsafe flex-start; justify-content: unsafe flex-start; width: 148px; height: 1px; padding-top: 177px; margin-left: 892px;"><div style="box-sizing: border-box; font-size: 0; text-align: left; color: #232F3E; "><div style="display: inline-block; font-size: 13px; font-family: &quot;Helvetica&quot;; color: light-dark(#232F3E, #bdc7d4); line-height: 1.2; pointer-events: all; font-weight: bold; white-space: normal; word-wrap: normal; ">External Service</div></div></div></foreignObject><text x="892" y="190" fill="#232F3E" font-family="&quot;Helvetica&quot;" font-size="13px" font-weight="bold">External Service</text></switch></g></g><g><rect x="910" y="212" width="80" height="60" fill="none" stroke="none" pointer-events="all"/></g><g><g transform="translate(-0.5 -0.5)"><switch><foreignObject style="overflow: visible; text-align: left;" pointer-events="none" width="100%" height="100%" requiredFeatures="http://www.w3.org/TR/SVG11/feature#Extensibility"><div xmlns="http://www.w3.org/1999/xhtml" style="display: flex; align-items: unsafe center; justify-content: unsafe center; width: 78px; height: 1px; padding-top: 242px; margin-left: 911px;"><div style="box-sizing: border-box; font-size: 0; text-align: center; color: #5865F2; "><div style="display: inline-block; font-size: 48px; font-family: &quot;Helvetica&quot;; color: light-dark(#5865F2, #7e89ff); line-height: 1.2; pointer-events: all; white-space: normal; word-wrap: normal; ">💬</div></div></div></foreignObject><text x="950" y="256" fill="#5865F2" font-family="&quot;Helvetica&quot;" font-size="48px" text-anchor="middle">💬</text></switch></g></g><g><rect x="860" y="300" width="120" height="20" fill="none" stroke="none" pointer-events="all"/></g><g><g transform="translate(-0.5 -0.5)"><switch><foreignObject style="overflow: visible; text-align: left;" pointer-events="none" width="100%" height="100%" requiredFeatures="http://www.w3.org/TR/SVG11/feature#Extensibility"><div xmlns="http://www.w3.org/1999/xhtml" style="display: flex; align-items: unsafe center; justify-content: unsafe center; width: 118px; height: 1px; padding-top: 310px; margin-left: 861px;"><div style="box-sizing: border-box; font-size: 0; text-align: center; color: #232F3E; "><div style="display: inline-block; font-size: 12px; font-family: &quot;Helvetica&quot;; color: light-dark(#232F3E, #bdc7d4); line-height: 1.2; pointer-events: all; font-weight: bold; white-space: normal; word-wrap: normal; ">Discord Webhook</div></div></div></foreignObject><text x="920" y="314" fill="#232F3E" font-family="&quot;Helvetica&quot;" font-size="12px" text-anchor="middle" font-weight="bold">Discord Webhook</text></switch></g></g><g><rect x="210" y="420" width="60" height="60" fill="none" stroke="none" pointer-events="all"/><path d="M 215.49 477.27 C 216.17 463.75 226.9 452.97 240 452.97 C 244.43 452.97 248.77 454.22 252.55 456.58 C 259.57 460.95 264.07 468.8 264.51 477.27 Z M 226.63 436.2 C 226.63 428.77 232.63 422.73 240 422.73 C 247.37 422.73 253.37 428.77 253.37 436.2 C 253.37 443.63 247.37 449.67 240 449.67 C 232.63 449.67 226.63 443.63 226.63 436.2 Z M 254 454.26 C 251.63 452.79 249.07 451.72 246.41 451.05 C 252.11 448.55 256.1 442.84 256.1 436.2 C 256.1 427.27 248.88 420 240 420 C 231.12 420 223.9 427.27 223.9 436.2 C 223.9 442.85 227.9 448.57 233.61 451.06 C 221.65 454.07 212.73 465.27 212.73 478.64 C 212.73 479.39 213.34 480 214.09 480 L 265.91 480 C 266.66 480 267.27 479.39 267.27 478.64 C 267.27 468.71 262.18 459.37 254 454.26 Z" fill="#232f3d" stroke="none" pointer-events="all" style="fill: light-dark(rgb(35, 47, 61), rgb(190, 200, 212));"/></g><g><rect x="200" y="485" width="60" height="20" fill="none" stroke="none" pointer-events="all"/></g><g><g transform="translate(-0.5 -0.5)"><switch><foreignObject style="overflow: visible; text-align: left;" pointer-events="none" width="100%" height="100%" requiredFeatures="http://www.w3.org/TR/SVG11/feature#Extensibility"><div xmlns="http://www.w3.org/1999/xhtml" style="display: flex; align-items: unsafe center; justify-content: unsafe center; width: 58px; height: 1px; padding-top: 495px; margin-left: 201px;"><div style="box-sizing: border-box; font-size: 0; text-align: center; color: #232F3E; "><div style="display: inline-block; font-size: 11px; font-family: &quot;Helvetica&quot;; color: light-dark(#232F3E, #bdc7d4); line-height: 1.2; pointer-events: all; font-weight: bold; white-space: normal; word-wrap: normal; ">User</div></div></div></foreignObject><text x="230" y="498" fill="#232F3E" font-family="&quot;Helvetica&quot;" font-size="11px" text-anchor="middle" font-weight="bold">User</text></switch></g></g><g><path d="M 240 420 L 240 410 L 240 302.24" fill="none" stroke="#569a57" stroke-width="2" stroke-miterlimit="10" pointer-events="stroke" style="stroke: light-dark(rgb(86, 154, 87), rgb(80, 138, 81));"/><path d="M 240 296.24 L 244 304.24 L 240 302.24 L 236 304.24 Z" fill="#569a57" stroke="#569a57" stroke-width="2" stroke-miterlimit="10" pointer-events="all" style="fill: light-dark(rgb(86, 154, 87), rgb(80, 138, 81)); stroke: light-dark(rgb(86, 154, 87), rgb(80, 138, 81));"/></g><g><g transform="translate(-0.5 -0.5)"><switch><foreignObject style="overflow: visible; text-align: left;" pointer-events="none" width="100%" height="100%" requiredFeatures="http://www.w3.org/TR/SVG11/feature#Extensibility"><div xmlns="http://www.w3.org/1999/xhtml" style="display: flex; align-items: unsafe center; justify-content: unsafe center; width: 1px; height: 1px; padding-top: 355px; margin-left: 250px;"><div style="box-sizing: border-box; font-size: 0; text-align: center; color: #232F3E; background-color: #FFFFFF; "><div style="display: inline-block; font-size: 11px; font-family: &quot;Helvetica&quot;; color: light-dark(#232F3E, #bdc7d4); line-height: 1.2; pointer-events: all; font-weight: bold; background-color: light-dark(#FFFFFF, #121212); white-space: nowrap; ">1. Upload File</div></div></div></foreignObject><text x="250" y="358" fill="#232F3E" font-family="&quot;Helvetica&quot;" font-size="11px" text-anchor="middle" font-weight="bold">1. Upload File</text></switch></g></g><g><path d="M 289.99 242 L 430 242 L 430 240 L 559.9 240" fill="none" stroke="#d86613" stroke-width="3" stroke-miterlimit="10" pointer-events="stroke" style="stroke: light-dark(rgb(216, 102, 19), rgb(216, 118, 46));"/><path d="M 566.65 240 L 557.65 244.5 L 559.9 240 L 557.65 235.5 Z" fill="#d86613" stroke="#d86613" stroke-width="3" stroke-miterlimit="10" pointer-events="all" style="fill: light-dark(rgb(216, 102, 19), rgb(216, 118, 46)); stroke: light-dark(rgb(216, 102, 19), rgb(216, 118, 46));"/></g><g><g transform="translate(-0.5 -0.5)"><switch><foreignObject style="overflow: visible; text-align: left;" pointer-events="none" width="100%" height="100%" requiredFeatures="http://www.w3.org/TR/SVG11/feature#Extensibility"><div xmlns="http://www.w3.org/1999/xhtml" style="display: flex; align-items: unsafe center; justify-content: unsafe center; width: 1px; height: 1px; padding-top: 227px; margin-left: 417px;"><div style="box-sizing: border-box; font-size: 0; text-align: center; color: #232F3E; background-color: #FFFFFF; "><div style="display: inline-block; font-size: 11px; font-family: &quot;Helvetica&quot;; color: light-dark(#232F3E, #bdc7d4); line-height: 1.2; pointer-events: all; font-weight: bold; background-color: light-dark(#FFFFFF, #121212); white-space: nowrap; ">2. Event Notification<br />(s3:ObjectCreated:*)</div></div></div></foreignObject><text x="417" y="230" fill="#232F3E" font-family="&quot;Helvetica&quot;" font-size="11px" text-anchor="middle" font-weight="bold">2. Event Notification...</text></switch></g></g><g><path d="M 620 190 L 620 170 L 240 170 L 240 182.7" fill="none" stroke="#569a57" stroke-width="1.5" stroke-miterlimit="10" stroke-dasharray="7.5 7.5" pointer-events="stroke" style="stroke: light-dark(rgb(86, 154, 87), rgb(80, 138, 81));"/><path d="M 240 188.32 L 236.25 180.82 L 240 182.7 L 243.75 180.82 Z" fill="#569a57" stroke="#569a57" stroke-width="1.5" stroke-miterlimit="10" pointer-events="all" style="fill: light-dark(rgb(86, 154, 87), rgb(80, 138, 81)); stroke: light-dark(rgb(86, 154, 87), rgb(80, 138, 81));"/></g><g><g transform="translate(-0.5 -0.5)"><switch><foreignObject style="overflow: visible; text-align: left;" pointer-events="none" width="100%" height="100%" requiredFeatures="http://www.w3.org/TR/SVG11/feature#Extensibility"><div xmlns="http://www.w3.org/1999/xhtml" style="display: flex; align-items: unsafe center; justify-content: unsafe center; width: 1px; height: 1px; padding-top: 161px; margin-left: 430px;"><div style="box-sizing: border-box; font-size: 0; text-align: center; color: #232F3E; background-color: #FFFFFF; "><div style="display: inline-block; font-size: 11px; font-family: &quot;Helvetica&quot;; color: light-dark(#232F3E, #bdc7d4); line-height: 1.2; pointer-events: all; font-weight: bold; background-color: light-dark(#FFFFFF, #121212); white-space: nowrap; ">3. GetObject</div></div></div></foreignObject><text x="430" y="164" fill="#232F3E" font-family="&quot;Helvetica&quot;" font-size="11px" text-anchor="middle" font-weight="bold">3. GetObject</text></switch></g></g><g><path d="M 670 240 L 800 240 L 899.9 240" fill="none" stroke="#7f56d9" stroke-width="3" stroke-miterlimit="10" pointer-events="stroke" style="stroke: light-dark(rgb(127, 86, 217), rgb(167, 132, 244));"/><path d="M 906.65 240 L 897.65 244.5 L 899.9 240 L 897.65 235.5 Z" fill="#7f56d9" stroke="#7f56d9" stroke-width="3" stroke-miterlimit="10" pointer-events="all" style="fill: light-dark(rgb(127, 86, 217), rgb(167, 132, 244)); stroke: light-dark(rgb(127, 86, 217), rgb(167, 132, 244));"/></g><g><g transform="translate(-0.5 -0.5)"><switch><foreignObject style="overflow: visible; text-align: left;" pointer-events="none" width="100%" height="100%" requiredFeatures="http://www.w3.org/TR/SVG11/feature#Extensibility"><div xmlns="http://www.w3.org/1999/xhtml" style="display: flex; align-items: unsafe center; justify-content: unsafe center; width: 1px; height: 1px; padding-top: 225px; margin-left: 778px;"><div style="box-sizing: border-box; font-size: 0; text-align: center; color: #232F3E; background-color: #FFFFFF; "><div style="display: inline-block; font-size: 11px; font-family: &quot;Helvetica&quot;; color: light-dark(#232F3E, #bdc7d4); line-height: 1.2; pointer-events: all; font-weight: bold; background-color: light-dark(#FFFFFF, #121212); white-space: nowrap; ">4. HTTPS POST<br />(Send Notification)</div></div></div></foreignObject><text x="778" y="228" fill="#232F3E" font-family="&quot;Helvetica&quot;" font-size="11px" text-anchor="middle" font-weight="bold">4. HTTPS POST...</text></switch></g></g><g><path d="M 620 460 L 620 298.24" fill="none" stroke="#dd344c" stroke-width="2" stroke-miterlimit="10" stroke-dasharray="10 10" pointer-events="stroke" style="stroke: light-dark(rgb(221, 52, 76), rgb(255, 127, 147));"/><path d="M 620 292.24 L 624 300.24 L 620 298.24 L 616 300.24 Z" fill="#dd344c" stroke="#dd344c" stroke-width="2" stroke-miterlimit="10" pointer-events="all" style="fill: light-dark(rgb(221, 52, 76), rgb(255, 127, 147)); stroke: light-dark(rgb(221, 52, 76), rgb(255, 127, 147));"/></g><g><g transform="translate(-0.5 -0.5)"><switch><foreignObject style="overflow: visible; text-align: left;" pointer-events="none" width="100%" height="100%" requiredFeatures="http://www.w3.org/TR/SVG11/feature#Extensibility"><div xmlns="http://www.w3.org/1999/xhtml" style="display: flex; align-items: unsafe center; justify-content: unsafe center; width: 1px; height: 1px; padding-top: 385px; margin-left: 630px;"><div style="box-sizing: border-box; font-size: 0; text-align: center; color: #232F3E; background-color: #FFFFFF; "><div style="display: inline-block; font-size: 11px; font-family: &quot;Helvetica&quot;; color: light-dark(#232F3E, #bdc7d4); line-height: 1.2; pointer-events: all; font-weight: bold; background-color: light-dark(#FFFFFF, #121212); white-space: nowrap; ">Authorize</div></div></div></foreignObject><text x="630" y="388" fill="#232F3E" font-family="&quot;Helvetica&quot;" font-size="11px" text-anchor="middle" font-weight="bold">Authorize</text></switch></g></g><g><rect x="100" y="90" width="500" height="30" fill="none" stroke="none" pointer-events="all"/></g><g><g transform="translate(-0.5 -0.5)"><switch><foreignObject style="overflow: visible; text-align: left;" pointer-events="none" width="100%" height="100%" requiredFeatures="http://www.w3.org/TR/SVG11/feature#Extensibility"><div xmlns="http://www.w3.org/1999/xhtml" style="display: flex; align-items: unsafe center; justify-content: unsafe flex-start; width: 498px; height: 1px; padding-top: 105px; margin-left: 102px;"><div style="box-sizing: border-box; font-size: 0; text-align: left; color: #232F3E; "><div style="display: inline-block; font-size: 20px; font-family: &quot;Helvetica&quot;; color: light-dark(#232F3E, #bdc7d4); line-height: 1.2; pointer-events: all; font-weight: bold; white-space: normal; word-wrap: normal; ">S3 + Lambda + Discord 單據通知系統架構圖</div></div></div></foreignObject><text x="102" y="111" fill="#232F3E" font-family="&quot;Helvetica&quot;" font-size="20px" font-weight="bold">S3 + Lambda + Discord 單據通知系統架構圖</text></switch></g></g><g><path d="M 910 227 L 910 218.37" fill="none" stroke="#000000" stroke-miterlimit="10" pointer-events="stroke" style="stroke: light-dark(rgb(0, 0, 0), rgb(255, 255, 255));"/><path d="M 910 213.12 L 913.5 220.12 L 910 218.37 L 906.5 220.12 Z" fill="#000000" stroke="#000000" stroke-miterlimit="10" pointer-events="all" style="fill: light-dark(rgb(0, 0, 0), rgb(255, 255, 255)); stroke: light-dark(rgb(0, 0, 0), rgb(255, 255, 255));"/></g></g><switch><g requiredFeatures="http://www.w3.org/TR/SVG11/feature#Extensibility"/><a transform="translate(0,-5)" xlink:href="https://www.drawio.com/doc/faq/svg-export-text-problems" target="_blank"><text text-anchor="middle" font-size="10px" x="50%" y="100%">Text is not SVG - cannot display</text></a></switch></svg>